# xmcd
#
# Track frame offsets:
#	150
#	16031
#	37136
#	57190
#	72358
#	89227
#	104795
#	125389
#	143749
#	158062
#	172371
#	188485
#
# Disc length: 2746 seconds
#
# Revision: 1
# Processed by: cddbd v1.5.2PL0 Copyright (c) Steve Scherf et al.
# Submitted via: audiograbber 1.83.01
#
DISCID=ad0ab80c
DTITLE=Queenie and the B's - Boomerang Girl
DYEAR=2014
DGENRE=Blues
TTITLE0=You're Gonna Miss Me When I'm Gone
TTITLE1=Shine
TTITLE2=Boomerang Girl
TTITLE3=It's a Cryin' Shame
TTITLE4=Fireflies
TTITLE5=Walkin' Blues
TTITLE6=Just a Little Kiss
TTITLE7=Devil Moon
TTITLE8=Bye, Bye Baby
TTITLE9=OneGood Woman Gone Bad
TTITLE10=Runaway Train
TTITLE11=Sunday Sisters
EXTD=
EXTT0=
EXTT1=
EXTT2=
EXTT3=
EXTT4=
EXTT5=
EXTT6=
EXTT7=
EXTT8=
EXTT9=
EXTT10=
EXTT11=
PLAYORDER=
